<svg xmlns="http://www.w3.org/2000/svg" xmlns:xlink="http://www.w3.org/1999/xlink" viewBox="0 0 192 192"><defs><style>.cls-1{fill:#009688;}.cls-2{fill:url(#radial-gradient);}.cls-3{fill:#fff;}</style><radialGradient id="radial-gradient" cx="23.77" cy="23.93" r="204.62" gradientUnits="userSpaceOnUse"><stop offset="0" stop-color="#fff" stop-opacity="0.1"/><stop offset="1" stop-color="#fff" stop-opacity="0"/></radialGradient></defs><title>icon1</title><g id="back"><rect class="cls-1" x="20" y="20" width="152" height="152" rx="12"/></g><g id="finish"><rect class="cls-2" x="20" y="20" width="152" height="152" rx="12"/></g><g id="keylines"><path class="cls-3" d="M70.3,51.41h49.06a6.8,6.8,0,0,1,6.8,6.8v93.9a4.46,4.46,0,0,1-4.46,4.46H70.3a4.46,4.46,0,0,1-4.46-4.46V55.86A4.46,4.46,0,0,1,70.3,51.41Z"/><rect class="cls-1" x="68.72" y="55.06" width="54.56" height="97.84" rx="4.4"/><rect class="cls-3" x="90.39" y="56.66" width="11.21" height="1.47" rx="0.63"/><path class="cls-3" d="M111.86,99.07a7.87,7.87,0,0,0-3.75.1,9.09,9.09,0,0,0-16.29-3,7.13,7.13,0,0,0-6.51,0,6.67,6.67,0,0,0-3,3.85,7.61,7.61,0,0,0-8.73,8.39A7.66,7.66,0,0,0,85.35,114a9.73,9.73,0,0,0,4.8,1.3,9.61,9.61,0,0,0,6-2.07,8.06,8.06,0,0,0,10.27,1.14,8.12,8.12,0,0,0,3.74.93,8.22,8.22,0,0,0,8.24-7.87A8.35,8.35,0,0,0,111.86,99.07Z"/><path class="cls-3" d="M116.59,43.16a2.31,2.31,0,0,0,1.81.73,14.19,14.19,0,0,1,14.87,14.86,2.28,2.28,0,0,0,.72,1.81h0c1.28,1.28,3.25.82,3.4-.8a19.15,19.15,0,0,0-20-20c-1.61.15-2.08,2.13-.8,3.4Z"/><path class="cls-3" d="M119.73,33.81a3.28,3.28,0,0,0,2.4,1c4.69-.27,10,1.77,14.15,5.93s6.2,9.46,5.93,14.15a3.26,3.26,0,0,0,1,2.4h0c1.73,1.72,4.27,1.22,4.39-.88.34-6.31-2.42-13.42-8-19s-12.7-8.34-19-8c-2.09.11-2.6,2.66-.87,4.39Z"/></g></svg>