<svg xmlns="http://www.w3.org/2000/svg" xmlns:xlink="http://www.w3.org/1999/xlink" viewBox="0 0 192 192"><defs><style>.cls-1{fill:#303030;}.cls-2{fill:url(#radial-gradient);}.cls-3{font-size:35.6px;fill:#82e4c8;font-family:ForteMT, Forte;}.cls-4{fill:#f4f4f4;}</style><radialGradient id="radial-gradient" cx="23.77" cy="23.93" r="204.62" gradientUnits="userSpaceOnUse"><stop offset="0" stop-color="#fff" stop-opacity="0.1"/><stop offset="1" stop-color="#fff" stop-opacity="0"/></radialGradient></defs><title>icon2</title><g id="back"><rect class="cls-1" x="20" y="20" width="152" height="152" rx="12"/></g><g id="finish"><rect class="cls-2" x="20" y="20" width="152" height="152" rx="12"/></g><g id="keylines"><text class="cls-3" transform="translate(49.15 133.76) scale(1.15 1)">HTTP</text><path class="cls-4" d="M32,135.6l1.06.66a13.87,13.87,0,0,0,7.22,1.85h.82v1.52H150.9v-1.52h.48a15.06,15.06,0,0,0,7.25-1.73l1.37-.78Z"/><path class="cls-4" d="M105.47,53.38c-31-5.38-60.54,15.81-66,47.33l112.2,19.48C157.13,88.67,136.45,58.76,105.47,53.38Z"/><path class="cls-4" d="M113.91,43.85c.22-1.26-2.56-2.79-6.19-3.42s-6.76-.12-7,1.13c-.14.8.91,1.7,2.62,2.41a1.77,1.77,0,0,1,.93,1,9.34,9.34,0,0,1,.07,5.71,1.65,1.65,0,0,0,1.34,2h0a1.68,1.68,0,0,0,2-1.49A12,12,0,0,1,109.43,46a1.66,1.66,0,0,1,1.29-.78C112.52,45.12,113.77,44.63,113.91,43.85Z"/></g></svg>